<svg xmlns="http://www.w3.org/2000/svg" xmlns:xlink="http://www.w3.org/1999/xlink" width="32" height="32" viewBox="0 0 32 32">
  <defs>
    <clipPath id="clip-path">
      <rect id="Rectangle_10166" data-name="Rectangle 10166" width="32" height="32" fill="#fff" stroke="#707070" stroke-width="1"/>
    </clipPath>
    <linearGradient id="linear-gradient" x1="0.168" y1="0.902" x2="1.023" y2="-0.132" gradientUnits="objectBoundingBox">
      <stop offset="0" stop-color="#1565c0"/>
      <stop offset="0.718" stop-color="#003c8f"/>
    </linearGradient>
  </defs>
  <g id="Mask_Group_1432" data-name="Mask Group 1432" clip-path="url(#clip-path)">
    <g id="meldCX_Icon_RGB_Grad_P_PD" transform="translate(2 -0.006)">
      <path id="Path_14598" data-name="Path 14598" d="M.646,7.533A1.363,1.363,0,0,0,0,8.646V23.365a1.363,1.363,0,0,0,.646,1.113l12.839,7.363a1.381,1.381,0,0,0,1.29,0l12.84-7.363a1.363,1.363,0,0,0,.646-1.113V8.646a1.363,1.363,0,0,0-.646-1.113L14.775.17a1.381,1.381,0,0,0-1.29,0Z" transform="translate(0 0)" fill="url(#linear-gradient)"/>
      <g id="Group_3187" data-name="Group 3187" transform="translate(1.835 10.407)">
        <path id="Path_14601" data-name="Path 14601" d="M28.147,124.241a3.4,3.4,0,0,0-2.422-.961,3.36,3.36,0,0,0-2.508,1.039l-.128.133-.128-.133a3.36,3.36,0,0,0-2.508-1.039,3.4,3.4,0,0,0-2.429.968,3.094,3.094,0,0,0-.994,2.305v4.664a.374.374,0,0,0,.374.374h.851a.374.374,0,0,0,.374-.374v-4.445a1.954,1.954,0,0,1,.54-1.383,1.743,1.743,0,0,1,2.57,0,1.948,1.948,0,0,1,.541,1.383v4.445a.374.374,0,0,0,.374.374h.864a.374.374,0,0,0,.374-.374v-4.445a1.954,1.954,0,0,1,.54-1.383,1.743,1.743,0,0,1,2.57,0,1.952,1.952,0,0,1,.541,1.383v4.445a.374.374,0,0,0,.374.374h.851a.374.374,0,0,0,.374-.374v-4.664a3.094,3.094,0,0,0-.994-2.305Z" transform="translate(-17.03 -120.396)" fill="#fff"/>
        <path id="Path_14602" data-name="Path 14602" d="M139.214,96.856l-.015.006a3.9,3.9,0,0,0-1.8,1.753l-.013.028a4.432,4.432,0,0,0-.4,1.716,4.688,4.688,0,0,0,.265,1.433l.006.017a4.387,4.387,0,0,0,.61,1.045l.023.027a3.6,3.6,0,0,0,2.706,1.3h1.148a.374.374,0,0,0,.374-.374v-.621a.374.374,0,0,0-.374-.374h-.912a1.925,1.925,0,0,1-.758-.086l-.04-.02-.083-.023a2.022,2.022,0,0,1-.81-.462,2.5,2.5,0,0,1-.39-3.228,2.309,2.309,0,0,1,1.95-1.052h1.044a.374.374,0,0,0,.374-.374v-.652a.374.374,0,0,0-.374-.374h-1a3.81,3.81,0,0,0-1.535.316" transform="translate(-124.061 -96.538)" fill="#fff"/>
        <path id="Path_14603" data-name="Path 14603" d="M198.8,97.318a.336.336,0,0,0,.068-.224c0-.01,0-.018,0-.028a.577.577,0,0,0-.6-.545.647.647,0,0,0-.314.082v0l-.005,0a.576.576,0,0,0-.151.123l-.084.069a.348.348,0,0,0-.108.073l-.068.069h0l-1.113,1.139a.345.345,0,0,1-.495,0l-1.181-1.208-.2-.161a.582.582,0,0,0-.131-.1l-.006-.005h0a.647.647,0,0,0-.314-.082.576.576,0,0,0-.6.545h0a.341.341,0,0,0,.094.289.572.572,0,0,0,.117.122l2.23,2.305a.346.346,0,0,0,.5,0l2.219-2.293A.571.571,0,0,0,198.8,97.318Z" transform="translate(-174.47 -96.52)" fill="#fff"/>
        <path id="Path_14604" data-name="Path 14604" d="M198.779,138.239a.558.558,0,0,0-.117-.124l-2.229-2.345a.342.342,0,0,0-.5,0l-2.218,2.333a.545.545,0,0,0-.155.175.346.346,0,0,0-.068.227c0,.01,0,.018,0,.028a.581.581,0,0,0,.6.555.636.636,0,0,0,.314-.083v0l.005,0a.583.583,0,0,0,.151-.125l.084-.07a.351.351,0,0,0,.108-.074l1.181-1.23a.343.343,0,0,1,.5,0l1.181,1.23.2.164a.618.618,0,0,0,.13.1l.006.005h0a.636.636,0,0,0,.314.083.581.581,0,0,0,.6-.555h0A.356.356,0,0,0,198.779,138.239Z" transform="translate(-174.472 -131.444)" fill="#fff"/>
      </g>
    </g>
  </g>
</svg>
